<svg xmlns="http://www.w3.org/2000/svg" viewBox="0 0 64 64" role="img" aria-label="Biriho Shop">
  <defs>
    <linearGradient id="g" x1="8" y1="8" x2="56" y2="56" gradientUnits="userSpaceOnUse">
      <stop stop-color="#2f67f6"/>
      <stop offset="1" stop-color="#0b1323"/>
    </linearGradient>
  </defs>
  <rect width="64" height="64" rx="16" fill="url(#g)"/>
  <path d="M20 23.5h24l-2.7 23H22.7L20 23.5Z" fill="#fff"/>
  <path d="M25 24v-3.5C25 15.8 28.1 13 32 13s7 2.8 7 7.5V24" fill="none" stroke="#fff" stroke-width="4" stroke-linecap="round"/>
  <path d="M28 30h6.1c4.9 0 7.9 2.2 7.9 5.7 0 2.2-1.3 4-3.5 4.9 2.7.7 4.2 2.7 4.2 5.2 0 4-3.4 6.2-9.1 6.2H28V30Zm6 8.2c2.3 0 3.6-.8 3.6-2.3 0-1.4-1.2-2.2-3.4-2.2h-1.8v4.5H34Zm.2 9.7c2.6 0 4-.9 4-2.6s-1.4-2.6-4.1-2.6h-1.7v5.2h1.8Z" fill="#2f67f6"/>
</svg>
